<svg width="42" height="42" viewBox="0 0 42 42" fill="none" xmlns="http://www.w3.org/2000/svg">
<circle cx="21" cy="21" r="21" fill="white"/>
<path fill-rule="evenodd" clip-rule="evenodd" d="M33.25 21.0738C33.25 14.309 27.7648 8.82382 21 8.82382C14.2352 8.82382 8.75 14.309 8.75 21.0738C8.75 27.1879 13.2289 32.2558 19.0859 33.1756V24.6159H15.9748V21.0738H19.0859V18.375C19.0859 15.3054 20.9152 13.6084 23.713 13.6084C25.0534 13.6084 26.4556 13.848 26.4556 13.848V16.8629H24.9102C23.3893 16.8629 22.9135 17.8068 22.9135 18.7769V21.0738H26.3107L25.7682 24.6159H22.9141V33.1767C28.7711 32.2574 33.25 27.1895 33.25 21.0738Z" fill="#191E24"/>
</svg>
