<svg width="42" height="42" viewBox="0 0 42 42" fill="none" xmlns="http://www.w3.org/2000/svg">
<circle cx="21" cy="21" r="21" fill="white"/>
<path d="M24.84 21C24.84 21.7595 24.6148 22.5019 24.1928 23.1334C23.7709 23.7649 23.1712 24.2571 22.4695 24.5477C21.7678 24.8383 20.9957 24.9144 20.2509 24.7662C19.506 24.6181 18.8217 24.2523 18.2847 23.7153C17.7477 23.1783 17.382 22.494 17.2338 21.7491C17.0856 21.0043 17.1617 20.2322 17.4523 19.5305C17.7429 18.8288 18.2351 18.2291 18.8666 17.8072C19.4981 17.3852 20.2405 17.16 21 17.16C22.0181 17.1612 22.9941 17.5661 23.714 18.286C24.4339 19.0059 24.8388 19.9819 24.84 21ZM33 15.72V26.28C32.998 28.0616 32.2893 29.7697 31.0295 31.0295C29.7697 32.2893 28.0616 32.998 26.28 33H15.72C13.9384 32.998 12.2303 32.2893 10.9705 31.0295C9.71066 29.7697 9.00202 28.0616 9 26.28V15.72C9.00202 13.9384 9.71066 12.2303 10.9705 10.9705C12.2303 9.71066 13.9384 9.00202 15.72 9H26.28C28.0616 9.00202 29.7697 9.71066 31.0295 10.9705C32.2893 12.2303 32.998 13.9384 33 15.72ZM26.76 21C26.76 19.8608 26.4222 18.7471 25.7893 17.7999C25.1563 16.8527 24.2568 16.1144 23.2043 15.6785C22.1518 15.2425 20.9936 15.1284 19.8763 15.3507C18.7589 15.5729 17.7326 16.1215 16.9271 16.9271C16.1215 17.7326 15.5729 18.7589 15.3507 19.8763C15.1284 20.9936 15.2425 22.1518 15.6785 23.2043C16.1144 24.2568 16.8527 25.1563 17.7999 25.7893C18.7471 26.4222 19.8608 26.76 21 26.76C22.5271 26.7583 23.9912 26.1509 25.071 25.071C26.1509 23.9912 26.7583 22.5271 26.76 21ZM28.68 14.76C28.68 14.4752 28.5955 14.1968 28.4373 13.96C28.2791 13.7232 28.0542 13.5386 27.7911 13.4296C27.5279 13.3206 27.2384 13.2921 26.9591 13.3477C26.6797 13.4032 26.4232 13.5404 26.2218 13.7418C26.0204 13.9432 25.8832 14.1997 25.8277 14.4791C25.7721 14.7584 25.8006 15.0479 25.9096 15.3111C26.0186 15.5742 26.2032 15.7991 26.44 15.9573C26.6768 16.1155 26.9552 16.2 27.24 16.2C27.6219 16.2 27.9882 16.0483 28.2582 15.7782C28.5283 15.5082 28.68 15.1419 28.68 14.76Z" fill="#191E24"/>
</svg>
