<svg width="20" height="22" viewBox="0 0 20 22" fill="none" xmlns="http://www.w3.org/2000/svg">
<path d="M5.56152 11.9448L14.3132 16.8676M14.3132 4.63232L5.56152 9.55506M5.875 10.75C5.875 12.0962 4.78369 13.1875 3.4375 13.1875C2.09131 13.1875 1 12.0962 1 10.75C1 9.40381 2.09131 8.3125 3.4375 8.3125C4.78369 8.3125 5.875 9.40381 5.875 10.75ZM18.875 3.4375C18.875 4.78369 17.7837 5.875 16.4375 5.875C15.0913 5.875 14 4.78369 14 3.4375C14 2.09131 15.0913 1 16.4375 1C17.7837 1 18.875 2.09131 18.875 3.4375ZM18.875 18.0625C18.875 19.4087 17.7837 20.5 16.4375 20.5C15.0913 20.5 14 19.4087 14 18.0625C14 16.7163 15.0913 15.625 16.4375 15.625C17.7837 15.625 18.875 16.7163 18.875 18.0625Z" stroke="black" stroke-width="2" stroke-linecap="round" stroke-linejoin="round"/>
</svg>
