<svg width="42" height="42" viewBox="0 0 42 42" fill="none" xmlns="http://www.w3.org/2000/svg">
<circle cx="21" cy="21" r="21" fill="white"/>
<g clip-path="url(#clip0_1963_458)">
<path d="M33.8297 15.5557C33.8297 13.2706 32.1488 11.4323 30.0719 11.4323C27.2586 11.3008 24.3894 11.25 21.4573 11.25H20.5433C17.6183 11.25 14.7441 11.3008 11.9308 11.4328C9.8589 11.4328 8.17804 13.2812 8.17804 15.5664C8.05109 17.3737 7.99726 19.1815 8.00031 20.9893C7.99523 22.7971 8.05278 24.6067 8.17297 26.4179C8.17297 28.703 9.85382 30.5565 11.9257 30.5565C14.8812 30.6936 17.9128 30.7546 20.9952 30.7495C24.0827 30.7596 27.1059 30.6953 30.0648 30.5565C32.1417 30.5565 33.8226 28.703 33.8226 26.4179C33.9444 24.605 34.0003 22.7971 33.9952 20.9843C34.0067 19.1764 33.9516 17.3669 33.8297 15.5557ZM18.512 25.971V15.9925L25.8753 20.9792L18.512 25.971Z" fill="#191E24"/>
</g>
<defs>
<clipPath id="clip0_1963_458">
<rect width="26" height="26" fill="white" transform="translate(8 8)"/>
</clipPath>
</defs>
</svg>
