<?xml version="1.0" encoding="utf-8"?><svg width="42" height="42" fill="none" xmlns="http://www.w3.org/2000/svg" viewBox="0 0 42 42"><circle cx="21" cy="21" r="21" fill="#fff"/><path fill-rule="evenodd" clip-rule="evenodd" d="M33.25 21.074c0-6.765-5.485-12.25-12.25-12.25S8.75 14.309 8.75 21.074c0 6.114 4.479 11.182 10.336 12.102v-8.56h-3.111v-3.542h3.11v-2.699c0-3.07 1.83-4.767 4.628-4.767 1.34 0 2.743.24 2.743.24v3.015H24.91c-1.52 0-1.997.944-1.997 1.914v2.297h3.398l-.543 3.542h-2.854v8.56c5.857-.919 10.336-5.987 10.336-12.102z" fill="#191E24"/></svg>