<?xml version="1.0" encoding="utf-8"?><svg width="42" height="42" fill="none" xmlns="http://www.w3.org/2000/svg" viewBox="0 0 42 42"><circle cx="21" cy="21" r="21" fill="#fff"/><path d="M24.84 21a3.84 3.84 0 11-7.68 0 3.84 3.84 0 017.68 0zM33 15.72v10.56A6.728 6.728 0 0126.28 33H15.72A6.728 6.728 0 019 26.28V15.72A6.728 6.728 0 0115.72 9h10.56A6.728 6.728 0 0133 15.72zM26.76 21A5.76 5.76 0 1021 26.76 5.766 5.766 0 0026.76 21zm1.92-6.24a1.44 1.44 0 10-2.88 0 1.44 1.44 0 002.88 0z" fill="#191E24"/></svg>