<?xml version="1.0" encoding="utf-8"?><svg width="239" height="33" fill="none" xmlns="http://www.w3.org/2000/svg" viewBox="0 0 239 33"><path d="M9.412 32.525c-1.913 0-3.54-.426-4.882-1.277-1.33-.864-2.345-2.048-3.045-3.553C.785 26.19.423 24.475.4 22.55c.023-1.972.39-3.704 1.103-5.198.723-1.505 1.755-2.677 3.097-3.517 1.342-.84 2.958-1.26 4.848-1.26 1.995 0 3.71.49 5.144 1.47 1.447.98 2.415 2.322 2.905 4.025l-3.08.927c-.396-1.096-1.044-1.948-1.942-2.555-.887-.606-1.907-.91-3.063-.91-1.295 0-2.362.304-3.202.91-.84.596-1.464 1.424-1.872 2.485-.409 1.05-.619 2.258-.63 3.623.023 2.1.507 3.797 1.452 5.092.957 1.284 2.374 1.925 4.252 1.925 1.237 0 2.264-.28 3.08-.84.817-.571 1.435-1.394 1.855-2.467l3.15.822c-.653 1.762-1.674 3.11-3.062 4.043-1.388.933-3.063 1.4-5.023 1.4zm16.859 0c-1.412 0-2.596-.257-3.553-.77-.945-.525-1.662-1.213-2.152-2.065a5.621 5.621 0 01-.718-2.8c0-.992.187-1.85.56-2.573a5.029 5.029 0 011.61-1.82c.689-.49 1.511-.875 2.468-1.154a28.228 28.228 0 013.01-.63c1.12-.187 2.251-.356 3.395-.508 1.143-.152 2.21-.297 3.202-.438l-1.12.648c.035-1.68-.303-2.922-1.015-3.727-.7-.805-1.913-1.208-3.64-1.208-1.143 0-2.146.262-3.01.787-.851.514-1.452 1.354-1.802 2.52l-2.958-.892c.455-1.657 1.336-2.957 2.643-3.902 1.306-.946 3.027-1.418 5.162-1.418 1.715 0 3.185.31 4.41.928 1.237.606 2.124 1.528 2.66 2.764.269.584.438 1.22.508 1.908.07.677.105 1.388.105 2.135V32H33.27v-4.532l.647.42c-.711 1.528-1.709 2.683-2.992 3.464-1.272.782-2.824 1.173-4.655 1.173zm.472-2.607c1.12 0 2.089-.199 2.905-.595.829-.409 1.494-.94 1.995-1.593a5.216 5.216 0 00.98-2.17c.175-.583.269-1.23.28-1.942.024-.724.035-1.278.035-1.663l1.085.473c-1.015.14-2.012.274-2.992.402s-1.908.268-2.783.42c-.875.14-1.662.31-2.362.508a7.694 7.694 0 00-1.453.63c-.443.256-.805.589-1.085.997-.268.397-.402.892-.402 1.487 0 .514.128 1.004.385 1.47.268.467.676.846 1.225 1.138.56.292 1.289.438 2.187.438zm20.983 2.59c-2.252 0-4.101-.49-5.548-1.47-1.435-.992-2.316-2.375-2.642-4.148l3.185-.508c.256 1.027.846 1.844 1.767 2.45.922.595 2.065.893 3.43.893 1.295 0 2.31-.268 3.045-.805.735-.537 1.103-1.266 1.103-2.188 0-.536-.123-.968-.368-1.294-.245-.339-.752-.654-1.522-.945-.759-.292-1.908-.642-3.448-1.05-1.668-.444-2.98-.905-3.937-1.383-.957-.478-1.64-1.032-2.048-1.662-.408-.63-.612-1.395-.612-2.293 0-1.108.303-2.077.91-2.905.606-.84 1.452-1.487 2.537-1.942 1.097-.455 2.369-.683 3.815-.683 1.435 0 2.719.228 3.85.683 1.132.455 2.042 1.102 2.73 1.942a5.353 5.353 0 011.243 2.905l-3.185.578c-.152-1.015-.642-1.815-1.47-2.398-.817-.583-1.873-.893-3.168-.928-1.225-.046-2.222.17-2.992.648-.759.478-1.138 1.126-1.138 1.943 0 .454.14.845.42 1.172.292.327.823.636 1.593.927.781.292 1.913.625 3.395.998 1.668.42 2.98.88 3.937 1.382.969.49 1.657 1.074 2.065 1.75.409.666.613 1.488.613 2.468 0 1.82-.671 3.255-2.013 4.305-1.341 1.038-3.19 1.558-5.547 1.558zM72.603 32v-9.468c0-.898-.082-1.761-.245-2.59a6.494 6.494 0 00-.823-2.222 4.25 4.25 0 00-1.575-1.575c-.653-.385-1.481-.577-2.485-.577-.781 0-1.493.134-2.135.402a4.176 4.176 0 00-1.627 1.19c-.455.537-.811 1.213-1.068 2.03-.245.805-.367 1.756-.367 2.852l-2.048-.63c0-1.831.327-3.4.98-4.707.665-1.318 1.593-2.327 2.783-3.027 1.202-.712 2.613-1.068 4.235-1.068 1.225 0 2.269.193 3.132.578.864.384 1.581.898 2.153 1.54a7.273 7.273 0 011.347 2.135c.327.781.555 1.58.683 2.397.14.805.21 1.57.21 2.292V32h-3.15zm-13.475 0V6.8h2.8v13.912h.35V32h-3.15zm26.547.525c-1.412 0-2.596-.257-3.552-.77-.946-.525-1.663-1.213-2.153-2.065a5.621 5.621 0 01-.718-2.8c0-.992.187-1.85.56-2.573a5.029 5.029 0 011.61-1.82c.689-.49 1.511-.875 2.468-1.154a28.228 28.228 0 013.01-.63c1.12-.187 2.252-.356 3.395-.508 1.143-.152 2.21-.297 3.203-.438l-1.12.648c.034-1.68-.304-2.922-1.016-3.727-.7-.805-1.913-1.208-3.64-1.208-1.143 0-2.146.262-3.01.787-.851.514-1.452 1.354-1.802 2.52l-2.957-.892c.454-1.657 1.335-2.957 2.642-3.902 1.307-.946 3.028-1.418 5.162-1.418 1.715 0 3.185.31 4.41.928 1.237.606 2.124 1.528 2.66 2.764.269.584.438 1.22.508 1.908.07.677.105 1.388.105 2.135V32h-2.765v-4.532l.648.42c-.712 1.528-1.71 2.683-2.993 3.464-1.272.782-2.823 1.173-4.655 1.173zm.472-2.607c1.12 0 2.089-.199 2.905-.595.829-.409 1.494-.94 1.995-1.593a5.216 5.216 0 00.98-2.17c.175-.583.269-1.23.28-1.942.024-.724.035-1.278.035-1.663l1.085.473c-1.015.14-2.012.274-2.992.402s-1.907.268-2.782.42c-.876.14-1.663.31-2.363.508a7.694 7.694 0 00-1.453.63c-.443.256-.805.589-1.085.997-.268.397-.402.892-.402 1.487 0 .514.128 1.004.385 1.47.268.467.677.846 1.225 1.138.56.292 1.29.438 2.188.438zM100.34 32V6.275h3.115V32h-3.115zm16.416.525c-1.878 0-3.5-.426-4.865-1.277-1.353-.852-2.398-2.03-3.133-3.536-.735-1.505-1.102-3.231-1.102-5.18 0-1.983.373-3.721 1.12-5.215.747-1.493 1.802-2.654 3.167-3.482 1.365-.84 2.97-1.26 4.813-1.26 1.89 0 3.517.426 4.882 1.277 1.365.84 2.41 2.013 3.133 3.518.735 1.493 1.102 3.214 1.102 5.162 0 1.972-.367 3.71-1.102 5.215-.735 1.494-1.785 2.666-3.15 3.518-1.365.84-2.987 1.26-4.865 1.26zm0-2.957c1.96 0 3.418-.654 4.375-1.96.957-1.307 1.435-2.999 1.435-5.076 0-2.134-.484-3.832-1.453-5.092-.968-1.272-2.42-1.908-4.357-1.908-1.318 0-2.403.298-3.255.893-.852.595-1.488 1.418-1.908 2.467-.42 1.05-.63 2.264-.63 3.64 0 2.124.49 3.827 1.47 5.11.98 1.284 2.421 1.925 4.323 1.925zM140.279 32c-1.12.222-2.228.31-3.325.263-1.085-.035-2.053-.251-2.905-.648a4.179 4.179 0 01-1.943-1.89c-.373-.747-.577-1.5-.612-2.258-.023-.77-.035-1.639-.035-2.607V7.85h3.115v16.87c0 .77.006 1.43.017 1.978.024.548.146 1.02.368 1.417.42.747 1.085 1.184 1.995 1.313.922.128 2.03.093 3.325-.105V32zm-12.653-16.328V13.1h12.653v2.572h-12.653zM144.676 32v-3.43h3.43V32h-3.43zm16.784-.28c.906 0 1.786-.32 2.64-.96.88-.64 1.586-1.627 2.12-2.96l.24.08c-.507 1.333-1.254 2.427-2.24 3.28-.987.853-2.147 1.28-3.48 1.28-1.76 0-3.107-.493-4.04-1.48-.934-1.013-1.4-2.453-1.4-4.32V13h-4v-.24h1.08c1.76-.267 3.066-1.267 3.92-3 .773-1.68 1.186-3.64 1.24-5.88h.28v8.88h1.16c2.533 0 4.333-.12 5.4-.36l.12.6h-6.68v14.24c0 2.987 1.213 4.48 3.64 4.48zm7.401.28V13.12l2.52-.84v3.32a7.287 7.287 0 012.16-2.36 5.084 5.084 0 013-.96c.72 0 1.6.187 2.64.56l-.16 1.48c-.294-.4-.734-.72-1.32-.96-.56-.24-1.094-.36-1.6-.36-1.014 0-1.867.213-2.56.64-.694.4-1.414 1.173-2.16 2.32V32h-2.52zm13.677-14.2h-.36c-.107-.32-.16-.707-.16-1.16 0-1.28.52-2.32 1.56-3.12 1.04-.827 2.413-1.24 4.12-1.24 4.907 0 7.36 2.12 7.36 6.36v10.72c0 1.573.467 2.36 1.4 2.36.773 0 1.307-.707 1.6-2.12h.24c-.293 1.893-1.24 2.84-2.84 2.84-1.947 0-2.92-1.44-2.92-4.32-2.667 2.88-5.227 4.32-7.68 4.32-1.44 0-2.547-.36-3.32-1.08-.773-.747-1.16-1.72-1.16-2.92 0-1.093.36-2.093 1.08-3 .72-.933 1.707-1.693 2.96-2.28 2.107-.96 4.44-1.68 7-2.16l1.12-.2v-2.16c0-2.16-.387-3.72-1.16-4.68-.747-.96-2.053-1.44-3.92-1.44-1.413 0-2.613.413-3.6 1.24-.987.827-1.48 1.813-1.48 2.96 0 .427.053.787.16 1.08zm10 9.96v-6.72c-2.693.48-4.827 1.173-6.4 2.08-1.867 1.067-2.8 2.667-2.8 4.8 0 1.173.293 2.053.88 2.64.587.56 1.373.84 2.36.84.907 0 1.933-.387 3.08-1.16a16.381 16.381 0 002.88-2.48zm15.131 1.48l3.04-7.84c1.546-4.107 2.493-6.987 2.84-8.64h1.12c-1.52 3.467-2.694 6.24-3.52 8.32l-4.48 11.36h-.24l-8.24-19.68h2.76l6.72 16.48zm17.415-16.96c2.4 0 4.24.827 5.52 2.48 1.28 1.68 1.933 3.627 1.96 5.84h-13.24c0 7.413 2.12 11.12 6.36 11.12 2.693 0 4.853-1.32 6.48-3.96l.2.12c-1.813 3.04-4.293 4.56-7.44 4.56-.96 0-1.92-.16-2.88-.48-.933-.347-1.84-.867-2.72-1.56-.88-.72-1.6-1.76-2.16-3.12-.533-1.36-.8-2.96-.8-4.8 0-3.12.773-5.6 2.32-7.44 1.573-1.84 3.707-2.76 6.4-2.76zm-5.76 8.08h10.44c0-2.267-.413-4.133-1.24-5.6-.853-1.493-2.107-2.24-3.76-2.24-3.28 0-5.093 2.613-5.44 7.84zM236.478 32V1.32l2.52-.84V32h-2.52z" fill="#fff"/></svg>