<?xml version="1.0" encoding="utf-8"?><svg width="42" height="42" fill="none" xmlns="http://www.w3.org/2000/svg" viewBox="0 0 42 42"><circle cx="21" cy="21" r="21" fill="#fff"/><g clip-path="url(#lclip0_1963_458)"><path d="M33.83 15.556c0-2.285-1.681-4.124-3.758-4.124a184.716 184.716 0 00-8.615-.182h-.914c-2.925 0-5.799.05-8.612.183-2.072 0-3.753 1.848-3.753 4.133A75.541 75.541 0 008 20.99a78.627 78.627 0 00.173 5.429c0 2.285 1.68 4.139 3.753 4.139 2.955.137 5.987.198 9.07.193 3.087.01 6.11-.055 9.069-.194 2.077 0 3.758-1.853 3.758-4.138.121-1.813.177-3.62.172-5.434a73.82 73.82 0 00-.165-5.428zM18.512 25.97v-9.979l7.363 4.987-7.363 4.992z" fill="#191E24"/></g><defs><clipPath id="lclip0_1963_458"><path fill="#fff" transform="translate(8 8)" d="M0 0h26v26H0z"/></clipPath></defs></svg>